<svg width="20" height="18" viewBox="0 0 20 18" fill="none" xmlns="http://www.w3.org/2000/svg">
<path id="heart" d="M8.80349 16.952L9.95633 18L11.1092 16.952C12.8559 15.3799 14.2969 14.0262 15.4323 12.8908C16.5677 11.7555 17.4672 10.7465 18.131 9.8641C18.7948 8.98236 19.2576 8.17886 19.5196 7.45362C19.7817 6.72908 19.9127 5.99127 19.9127 5.24017C19.9127 3.75546 19.4103 2.51074 18.4056 1.50603C17.4016 0.502008 16.1572 0 14.6725 0C13.7642 0 12.8996 0.213799 12.0786 0.641397C11.2576 1.06969 10.5502 1.68559 9.95633 2.48908C9.36244 1.68559 8.65502 1.06969 7.83406 0.641397C7.0131 0.213799 6.14847 0 5.24017 0C3.75546 0 2.51109 0.502008 1.50707 1.50603C0.502358 2.51074 0 3.75546 0 5.24017C0 5.99127 0.131004 6.72908 0.393013 7.45362C0.655022 8.17886 1.1179 8.98236 1.78166 9.8641C2.44541 10.7465 3.34498 11.7555 4.48035 12.8908C5.61572 14.0262 7.05677 15.3799 8.80349 16.952Z" fill="#EA3F20"/>
</svg>
