<svg width="22" height="25" viewBox="0 0 22 25" fill="none" xmlns="http://www.w3.org/2000/svg">
<g id="delete">
<path id="delete_2" d="M4.67334 24.5C3.99237 24.5 3.41237 24.2605 2.93333 23.7815C2.45432 23.3025 2.21482 22.7225 2.21482 22.0415V3.19271H0.692871V1.67076H6.78067V0.5H15.9124V1.67076H22.0002V3.19271H20.4782V22.0415C20.4782 22.742 20.2436 23.3268 19.7743 23.7961C19.305 24.2654 18.7202 24.5 18.0197 24.5H4.67334ZM18.9563 3.19271H3.73677V22.0415C3.73677 22.3146 3.82457 22.539 4.00018 22.7146C4.17579 22.8902 4.40017 22.9781 4.67334 22.9781H18.0197C18.2538 22.9781 18.4685 22.8805 18.6636 22.6854C18.8587 22.4902 18.9563 22.2756 18.9563 22.0415V3.19271ZM8.00991 19.9342H9.5319V6.23661H8.00991V19.9342ZM13.1611 19.9342H14.6831V6.23661H13.1611V19.9342Z" fill="#A7A7A7"/>
</g>
</svg>
