<svg width="21" height="21" viewBox="0 0 21 21" fill="none" xmlns="http://www.w3.org/2000/svg">
<path id="Union" fill-rule="evenodd" clip-rule="evenodd" d="M10.4999 0.00402832C7.61308 0.00402832 5.25458 2.29762 5.25458 5.14925C5.25458 8.00086 7.61308 10.2945 10.4999 10.2945C13.3867 10.2945 15.7452 8.00086 15.7452 5.14925C15.7452 2.29762 13.3867 0.00402832 10.4999 0.00402832ZM6.25458 5.14925C6.25458 2.86989 8.14516 1.00403 10.4999 1.00403C12.8546 1.00403 14.7452 2.86989 14.7452 5.14925C14.7452 7.42859 12.8546 9.29447 10.4999 9.29447C8.14516 9.29447 6.25458 7.42859 6.25458 5.14925ZM15.9856 11.7136C15.7485 11.572 15.4415 11.6494 15.3 11.8865C15.1584 12.1236 15.2358 12.4306 15.4729 12.5722C18.0597 14.1169 19.8136 16.8403 19.9959 19.9699C19.9958 19.9728 19.9952 19.9748 19.9946 19.9763C19.9937 19.9786 19.9919 19.9817 19.9889 19.9848C19.983 19.9908 19.9738 19.996 19.959 19.996H1.04086C1.02609 19.996 1.01683 19.9908 1.01098 19.9848C1.0079 19.9817 1.00614 19.9786 1.00522 19.9763C1.0046 19.9748 1.00405 19.9729 1.00394 19.97C1.18621 16.8604 2.93026 14.1465 5.48707 12.6017C5.72343 12.4589 5.79927 12.1516 5.65647 11.9152C5.51367 11.6789 5.20631 11.603 4.96995 11.7458C2.14208 13.4543 0.204405 16.4634 0.00507847 19.9214L0.00495357 19.9214L0.00455979 19.9325C-0.0162087 20.5221 0.460775 20.996 1.04086 20.996H19.959C20.5391 20.996 21.0161 20.5221 20.9953 19.9325L20.9954 19.9325L20.9948 19.9215C20.7955 16.4424 18.8467 13.4221 15.9856 11.7136Z" fill="#EDEDED"/>
</svg>
