<svg width="31" height="21" viewBox="0 0 31 21" fill="none" xmlns="http://www.w3.org/2000/svg">
<g id="cart_icon">
<path id="Union" fill-rule="evenodd" clip-rule="evenodd" d="M2.11058 0C0.954879 0 0 0.933076 0 2.11056C0 3.26629 0.933121 4.22114 2.11058 4.22114H5.93569C6.21183 4.22114 6.43569 3.99729 6.43569 3.72114C6.43569 3.445 6.21183 3.22114 5.93569 3.22114H2.11058C1.49165 3.22114 1 2.72028 1 2.11056C1 1.49163 1.50087 1 2.11058 1H6.81836C6.9329 1 7.04521 1.08063 7.07915 1.20386L7.07934 1.20455L8.70487 7.25781C8.77648 7.52451 9.05074 7.68265 9.31743 7.61103C9.58413 7.53941 9.74227 7.26516 9.67065 6.99846L8.04462 0.943319L8.04411 0.941436C7.89198 0.383659 7.38501 0 6.81836 0H2.11058ZM11.0152 0C10.739 0 10.5152 0.223858 10.5152 0.5C10.5152 0.776142 10.739 1 11.0152 1H29.6296C29.8152 1 29.9396 1.16935 29.8916 1.34021L29.8915 1.34018L29.8891 1.34925L27.738 9.58256L27.7375 9.58451C27.703 9.70725 27.591 9.78726 27.4771 9.78726H10.8138C9.64253 9.78726 8.6723 10.736 8.6723 11.9289C8.6723 13.1002 9.62095 14.0704 10.8138 14.0704H28.2822C28.5584 14.0704 28.7822 13.8465 28.7822 13.5704C28.7822 13.2942 28.5584 13.0704 28.2822 13.0704H10.8138C10.1793 13.0704 9.6723 12.554 9.6723 11.9289C9.6723 11.2943 10.1887 10.7873 10.8138 10.7873H27.4771C28.0437 10.7873 28.5505 10.4035 28.7027 9.8459L28.7028 9.84591L28.7041 9.84062L30.8556 1.60603C31.0825 0.787599 30.4643 0 29.6296 0H11.0152ZM12.6935 20.998C13.643 20.998 14.4126 20.2284 14.4126 19.2789C14.4126 18.3296 13.643 17.56 12.6935 17.56C11.7442 17.56 10.9747 18.3296 10.9747 19.2789C10.9747 20.2284 11.7442 20.998 12.6935 20.998ZM25.5935 19.2789C25.5935 20.2284 24.8238 20.998 23.8744 20.998C22.9251 20.998 22.1555 20.2284 22.1555 19.2789C22.1555 18.3296 22.9251 17.56 23.8744 17.56C24.8238 17.56 25.5935 18.3296 25.5935 19.2789Z" fill="#EDEDED"/>
</g>
</svg>
