<svg width="24" height="21" viewBox="0 0 24 21" fill="none" xmlns="http://www.w3.org/2000/svg">
<path id="heart" d="M10.6052 19.4056L10.6071 19.4073L11.6157 20.3243L12.6244 19.4073L12.6262 19.4056C14.6602 17.575 16.3345 16.002 17.6508 14.6857C18.9656 13.371 19.9977 12.2121 20.7533 11.2076L20.7534 11.2074C21.5095 10.2029 22.0195 9.30982 22.3027 8.52601L22.3027 8.52586C22.5892 7.73365 22.7314 6.93033 22.7314 6.11354C22.7314 4.50734 22.1934 3.18439 21.1196 2.11058C20.0467 1.03766 18.7242 0.5 17.1179 0.5C16.1403 0.5 15.2107 0.729274 14.3228 1.19168L10.6052 19.4056ZM10.6052 19.4056C8.57121 17.575 6.89692 16.002 5.58063 14.6857C4.26587 13.371 3.23374 12.2121 2.47818 11.2076L2.47807 11.2074C1.7219 10.2029 1.21194 9.30982 0.928768 8.526L0.928716 8.52586M10.6052 19.4056L0.928716 8.52586M11.6157 3.74513L11.2136 3.20113C10.5623 2.31993 9.79392 1.6536 8.90876 1.19175L11.6157 3.74513ZM11.6157 3.74513L12.0178 3.20113M11.6157 3.74513L12.0178 3.20113M12.0178 3.20113C12.6691 2.31993 13.4375 1.6536 14.3227 1.19175L12.0178 3.20113ZM0.928716 8.52586C0.642238 7.73365 0.5 6.93033 0.5 6.11354C0.5 4.50734 1.038 3.18439 2.11181 2.11058C3.18473 1.03766 4.50723 0.5 6.11354 0.5C7.09117 0.5 8.02079 0.729273 8.90862 1.19168L0.928716 8.52586Z" stroke="white"/>
</svg>
