<svg width="21" height="21" viewBox="0 0 21 21" fill="none" xmlns="http://www.w3.org/2000/svg">
<path id="Union" fill-rule="evenodd" clip-rule="evenodd" d="M10.5 0.00402832C7.6132 0.00402832 5.2547 2.29762 5.2547 5.14925C5.2547 8.00086 7.6132 10.2945 10.5 10.2945C13.3868 10.2945 15.7453 8.00086 15.7453 5.14925C15.7453 2.29762 13.3868 0.00402832 10.5 0.00402832ZM6.2547 5.14925C6.2547 2.86989 8.14528 1.00403 10.5 1.00403C12.8547 1.00403 14.7453 2.86989 14.7453 5.14925C14.7453 7.42859 12.8547 9.29447 10.5 9.29447C8.14528 9.29447 6.2547 7.42859 6.2547 5.14925ZM15.9857 11.7136C15.7486 11.572 15.4417 11.6494 15.3001 11.8865C15.1585 12.1236 15.2359 12.4306 15.473 12.5722C18.0598 14.1169 19.8138 16.8403 19.996 19.9699C19.9959 19.9728 19.9954 19.9748 19.9947 19.9763C19.9938 19.9786 19.9921 19.9817 19.989 19.9848C19.9831 19.9908 19.9739 19.996 19.9591 19.996H1.04098C1.02621 19.996 1.01695 19.9908 1.0111 19.9848C1.00802 19.9817 1.00627 19.9786 1.00534 19.9763C1.00472 19.9748 1.00417 19.9729 1.00406 19.97C1.18634 16.8604 2.93039 14.1465 5.48719 12.6017C5.72355 12.4589 5.79939 12.1516 5.65659 11.9152C5.51379 11.6789 5.20643 11.603 4.97008 11.7458C2.1422 13.4543 0.204528 16.4634 0.00520054 19.9214L0.00507564 19.9214L0.00468186 19.9325C-0.0160866 20.5221 0.460897 20.996 1.04098 20.996H19.9591C20.5392 20.996 21.0162 20.5221 20.9954 19.9325L20.9955 19.9325L20.9949 19.9215C20.7956 16.4424 18.8468 13.4221 15.9857 11.7136Z" fill="#EDEDED"/>
</svg>
