<svg width="30" height="30" viewBox="0 0 30 30" fill="none" xmlns="http://www.w3.org/2000/svg">
<g id="Group">
<g id="Vector">
<path d="M6 3C5.20435 3 4.44129 3.31607 3.87868 3.87868C3.31607 4.44129 3 5.20435 3 6V24C3 24.7956 3.31607 25.5587 3.87868 26.1213C4.44129 26.6839 5.20435 27 6 27H24C24.7956 27 25.5587 26.6839 26.1213 26.1213C26.6839 25.5587 27 24.7956 27 24V6C27 5.20435 26.6839 4.44129 26.1213 3.87868C25.5587 3.31607 24.7956 3 24 3H6ZM6 0H24C25.5913 0 27.1174 0.632141 28.2426 1.75736C29.3679 2.88258 30 4.4087 30 6V24C30 25.5913 29.3679 27.1174 28.2426 28.2426C27.1174 29.3679 25.5913 30 24 30H6C4.4087 30 2.88258 29.3679 1.75736 28.2426C0.632141 27.1174 0 25.5913 0 24V6C0 4.4087 0.632141 2.88258 1.75736 1.75736C2.88258 0.632141 4.4087 0 6 0Z" fill="#5D49BD"/>
<path d="M6 3C5.20435 3 4.44129 3.31607 3.87868 3.87868C3.31607 4.44129 3 5.20435 3 6V24C3 24.7956 3.31607 25.5587 3.87868 26.1213C4.44129 26.6839 5.20435 27 6 27H24C24.7956 27 25.5587 26.6839 26.1213 26.1213C26.6839 25.5587 27 24.7956 27 24V6C27 5.20435 26.6839 4.44129 26.1213 3.87868C25.5587 3.31607 24.7956 3 24 3H6Z" fill="#5D49BD"/>
</g>
<path id="Vector_2" d="M20.4659 14.1061C20.4839 11.8681 18.6374 9.81607 16.3499 9.53257L16.1999 9.51007C16.0852 9.48729 15.9688 9.47425 15.8519 9.47107C15.3824 9.47107 15.2579 9.81007 15.2249 10.0126C15.2062 10.0967 15.2045 10.1837 15.2199 10.2684C15.2354 10.3532 15.2677 10.434 15.3149 10.5061C15.4709 10.7236 15.7439 10.7611 15.9629 10.7941C16.0274 10.8031 16.0889 10.8106 16.1384 10.8241C18.1949 11.2966 18.8879 12.0421 19.2254 14.1466C19.2344 14.1991 19.2374 14.2621 19.2404 14.3296C19.2554 14.5801 19.2869 15.1036 19.8329 15.1036C19.8779 15.1036 19.9259 15.1006 19.9769 15.0916C20.4854 15.0121 20.4689 14.5336 20.4614 14.3041C20.4576 14.2486 20.4576 14.193 20.4614 14.1376C20.463 14.1276 20.464 14.1176 20.4644 14.1076L20.4659 14.1061Z" fill="white"/>
<path id="Vector_3" d="M15.7201 8.71058C15.7801 8.71508 15.8401 8.71958 15.8866 8.72708C19.2616 9.26408 20.8156 10.9141 21.2461 14.4271C21.2536 14.4871 21.2536 14.5591 21.2551 14.6371C21.2596 14.9116 21.2686 15.4816 21.8626 15.4936H21.8806C21.9621 15.4979 22.0437 15.4848 22.1197 15.455C22.1958 15.4253 22.2646 15.3796 22.3216 15.3211C22.5061 15.1216 22.4941 14.8261 22.4836 14.5861C22.4806 14.5291 22.4776 14.4736 22.4791 14.4256C22.5211 10.8331 19.5091 7.57508 16.0321 7.45508L15.9901 7.45658C15.9767 7.45855 15.9631 7.45956 15.9496 7.45958C15.9151 7.45958 15.8716 7.45658 15.8266 7.45358C15.7667 7.44811 15.7067 7.44511 15.6466 7.44458C15.0931 7.44458 14.9881 7.84958 14.9746 8.09258C14.9446 8.65208 15.4681 8.69258 15.7201 8.71058ZM21.0826 18.9661C21.0103 18.9095 20.9388 18.852 20.8681 18.7936C20.4991 18.4876 20.1061 18.2056 19.7281 17.9326C19.649 17.8757 19.57 17.8187 19.4911 17.7616C19.0051 17.4106 18.5686 17.2381 18.1561 17.2381C17.6011 17.2381 17.1166 17.5561 16.7161 18.1816C16.5391 18.4576 16.3231 18.5926 16.0591 18.5926C15.8748 18.586 15.6941 18.5394 15.5296 18.4561C13.9621 17.7211 12.8416 16.5961 12.2011 15.1111C11.8921 14.3911 11.9911 13.9231 12.5371 13.5406C12.8461 13.3246 13.4221 12.9211 13.3816 12.1486C13.3366 11.2711 11.4601 8.63108 10.6696 8.33108C10.3324 8.20382 9.96051 8.20275 9.62257 8.32808C8.71507 8.64308 8.06257 9.19808 7.73707 9.92858C7.42207 10.6366 7.43707 11.4661 7.77907 12.3301C8.76457 14.8291 10.1491 17.0071 11.8981 18.8041C13.6081 20.5636 15.7111 22.0036 18.1471 23.0866C18.3661 23.1841 18.5971 23.2366 18.7651 23.2756L18.9076 23.3116C18.9271 23.3172 18.9473 23.3202 18.9676 23.3206H18.9871C20.1331 23.3206 21.5086 22.2406 21.9316 21.0076C22.3021 19.9276 21.6256 19.3951 21.0826 18.9676V18.9661ZM16.2271 11.5651C16.0321 11.5696 15.6226 11.5801 15.4786 12.0091C15.4126 12.2101 15.4201 12.3841 15.5026 12.5266C15.6241 12.7366 15.8581 12.8011 16.0696 12.8356C16.8376 12.9631 17.2336 13.4026 17.3116 14.2156C17.3491 14.5966 17.5966 14.8606 17.9146 14.8606C17.9386 14.8611 17.9627 14.8601 17.9866 14.8576C18.3691 14.8096 18.5536 14.5201 18.5371 13.9951C18.5431 13.4461 18.2656 12.8251 17.7931 12.3301C17.3191 11.8321 16.7476 11.5516 16.2271 11.5651Z" fill="white"/>
</g>
</svg>
