<svg width="22" height="16" viewBox="0 0 22 16" fill="none" xmlns="http://www.w3.org/2000/svg">
<g id="16/cart">
<g id="icon">
<path d="M1.65997 0C0.751337 0 0 0.733718 0 1.65994C0 2.56861 0.733779 3.31989 1.65997 3.31989H4.30675C4.60804 3.31989 4.85228 3.07565 4.85228 2.77436C4.85228 2.47307 4.60804 2.22883 4.30675 2.22883H1.65997C1.34316 2.22883 1.09106 1.97285 1.09106 1.65994C1.09106 1.34316 1.34703 1.09106 1.65997 1.09106H4.90705L6.03015 5.27328C6.10829 5.56426 6.40752 5.7368 6.6985 5.65866C6.98948 5.58051 7.16202 5.28128 7.08388 4.9903L5.95875 0.800523L5.95819 0.798467C5.8293 0.325875 5.39978 0 4.91752 0H1.65997Z" fill="white"/>
<path d="M7.8216 0C7.52031 0 7.27606 0.244243 7.27606 0.545532C7.27606 0.846821 7.52031 1.09106 7.8216 1.09106H20.6862L19.2018 6.77217H7.68229C7.12491 6.77217 6.70227 7.12833 6.44836 7.48386C6.18924 7.84669 6.02292 8.3159 6.02292 8.75832C6.02292 9.19264 6.18475 9.66454 6.44013 10.0325C6.68999 10.3924 7.11291 10.7639 7.68229 10.7639H19.7695C20.0708 10.7639 20.3151 10.5197 20.3151 10.2184C20.3151 9.91708 20.0708 9.67284 19.7695 9.67284H7.68229C7.61944 9.67284 7.48544 9.62501 7.33644 9.41034C7.19295 9.20361 7.11398 8.94548 7.11398 8.75832C7.11398 8.56848 7.19382 8.31738 7.33624 8.11797C7.48387 7.91125 7.61815 7.86324 7.68229 7.86324H19.2124C19.6947 7.86324 20.124 7.53728 20.253 7.06487L20.2545 7.05911L21.7429 1.36272C21.9346 0.667598 21.4085 0 20.7018 0H7.8216Z" fill="white"/>
<path d="M9.25341 16C10.0599 16 10.7136 15.3463 10.7136 14.5399C10.7136 13.7335 10.0599 13.0799 9.25341 13.0799C8.44708 13.0799 7.79342 13.7335 7.79342 14.5399C7.79342 15.3463 8.44708 16 9.25341 16Z" fill="white"/>
<path d="M18.4502 14.5399C18.4502 15.3463 17.7964 16 16.99 16C16.1837 16 15.53 15.3463 15.53 14.5399C15.53 13.7335 16.1837 13.0799 16.99 13.0799C17.7964 13.0799 18.4502 13.7335 18.4502 14.5399Z" fill="white"/>
</g>
</g>
</svg>
